<svg width="21" height="20" viewBox="0 0 21 20" fill="none" xmlns="http://www.w3.org/2000/svg">
<g clip-path="url(#clip0_1_1837)">
<path d="M4.04169 0.5H16.9584C18.9167 0.5 20.5 2.08333 20.5 4.04167V16.4583C20.5 18.4167 18.9167 20 16.9584 20H4.04169C2.08336 20 0.500027 18.4167 0.500027 16.4583V4.04167C0.500027 2.08333 2.08336 0.5 4.04169 0.5Z" fill="#470137"/>
<path d="M11.0167 5.625L8.51667 9.75L11.1833 14.125C11.2 14.1583 11.2083 14.1917 11.2 14.225C11.1917 14.2583 11.1583 14.2333 11.1083 14.2417H9.20001C9.06667 14.2417 8.97501 14.2333 8.91667 14.15C8.74167 13.8 8.55834 13.4583 8.38334 13.1083C8.20834 12.7667 8.01667 12.4167 7.81667 12.0583C7.61667 11.7 7.41667 11.3417 7.21667 10.975H7.20001C7.02501 11.3333 6.83334 11.6917 6.64167 12.05C6.45 12.4083 6.25834 12.7667 6.07501 13.1167C5.88334 13.4667 5.69167 13.825 5.50001 14.1667C5.46667 14.25 5.40001 14.2583 5.30834 14.2583H3.47501C3.44167 14.2583 3.41667 14.275 3.41667 14.2333C3.40834 14.2 3.41667 14.1667 3.43334 14.1417L6.02501 9.89167L3.50001 5.61667C3.47501 5.58333 3.46667 5.55 3.48334 5.53333C3.50001 5.50833 3.53334 5.5 3.56667 5.5H5.45834C5.50001 5.5 5.54167 5.50833 5.57501 5.51667C5.60834 5.53333 5.63334 5.55833 5.65834 5.59167C5.81667 5.95 6.00001 6.30833 6.19167 6.66667C6.39167 7.025 6.58334 7.375 6.79167 7.725C6.99167 8.075 7.175 8.425 7.35 8.78333H7.36667C7.54167 8.41667 7.72501 8.05833 7.90834 7.70833C8.09167 7.35833 8.28334 7.00833 8.47501 6.65833C8.66667 6.30833 8.85001 5.95 9.03334 5.60833C9.04167 5.575 9.05834 5.54167 9.08334 5.525C9.11667 5.50833 9.15001 5.5 9.19167 5.50833H10.95C10.9917 5.5 11.0333 5.525 11.0417 5.56667C11.05 5.575 11.0333 5.60833 11.0167 5.625Z" fill="#FF61F6"/>
<path d="M14.8667 14.4166C14.25 14.425 13.6334 14.3 13.075 14.0416C12.55 13.8 12.1167 13.4 11.8167 12.9083C11.5084 12.4 11.3584 11.7666 11.3584 11.0083C11.35 10.3916 11.5084 9.78331 11.8167 9.24998C12.1334 8.70831 12.5917 8.25831 13.1417 7.95831C13.725 7.63331 14.425 7.47498 15.25 7.47498C15.2917 7.47498 15.35 7.47498 15.425 7.48331C15.5 7.49164 15.5834 7.49164 15.6834 7.49998V4.86664C15.6834 4.80831 15.7084 4.77498 15.7667 4.77498H17.4584C17.5 4.76664 17.5334 4.79998 17.5417 4.83331C17.5417 4.84164 17.5417 4.84998 17.5417 4.84998V12.7833C17.5417 12.9333 17.55 13.1 17.5584 13.2833C17.575 13.4583 17.5834 13.625 17.5917 13.7666C17.5917 13.825 17.5667 13.875 17.5084 13.9C17.075 14.0833 16.6167 14.2166 16.15 14.3C15.725 14.375 15.3 14.4166 14.8667 14.4166ZM15.6834 12.75V9.08331C15.6084 9.06664 15.5334 9.04998 15.4584 9.04164C15.3667 9.03331 15.275 9.02498 15.1834 9.02498C14.8584 9.02498 14.5334 9.09164 14.2417 9.24164C13.9584 9.38331 13.7167 9.59164 13.5334 9.85831C13.35 10.125 13.2584 10.4833 13.2584 10.9166C13.25 11.2083 13.3 11.5 13.4 11.775C13.4834 12 13.6084 12.2 13.775 12.3666C13.9334 12.5166 14.125 12.6333 14.3417 12.7C14.5667 12.775 14.8 12.8083 15.0334 12.8083C15.1584 12.8083 15.275 12.8 15.3834 12.7916C15.4917 12.8 15.5834 12.7833 15.6834 12.75Z" fill="#FF61F6"/>
</g>
<defs>
<clipPath id="clip0_1_1837">
<rect x="0.500027" y="0.5" width="20" height="19.5" fill="white"/>
</clipPath>
</defs>
</svg>
